<svg xmlns="http://www.w3.org/2000/svg" width="70.749" height="56" viewBox="0 0 70.749 56">
  <g id="Group_142" data-name="Group 142" transform="translate(-215.249 -259.234)">
    <g id="Group_140" data-name="Group 140" transform="translate(215.249 259.234)">
      <path id="Path_307" data-name="Path 307" d="M842.548,438.415c-4.377,0-7-3.58-5.824-7.956l2.131-7.956a11.112,11.112,0,0,1,10.088-7.955H856.4a2.936,2.936,0,0,1,2.912,3.977l-1.066,3.978h-4.521l1.066-3.978h-6.915a5.029,5.029,0,0,0-4.4,3.63l-2.305,8.6c-.558,2.089.707,3.68,2.446,3.68h11.139l-1.066,3.978Z" transform="translate(-788.71 -402.613)" fill="#f58624"/>
      <g id="Group_139" data-name="Group 139">
        <path id="Path_308" data-name="Path 308" d="M235.328,291.131l8.548-31.9-5.133,2.268-2.591,9.667h-8.4a11.113,11.113,0,0,0-10.088,7.955l-2.131,7.956c-1.173,4.376,1.448,7.956,5.824,7.956h7.512Zm-15.354-3.754,2.292-8.551a5.1,5.1,0,0,1,4.417-3.68h8.4l-4.264,15.911h-8.4C220.678,291.057,219.414,289.466,219.974,287.377Z" transform="translate(-215.249 -259.234)" fill="#0495cd"/>
      </g>
      <path id="Path_309" data-name="Path 309" d="M608.747,322.937l1.064-3.977h-8.454L603.489,311h-.021l-5.074,2.319.033-.131-1.545,5.768H592.9l-1.065,3.977h3.978l-4.263,15.911a2.939,2.939,0,0,0,2.913,3.978h8.951l1.066-3.978h-8.455l4.264-15.911Z" transform="translate(-562.505 -307.025)" fill="#295890"/>
    </g>
    <g id="Group_141" data-name="Group 141" transform="translate(215.249 298.586)">
      <path id="Path_310" data-name="Path 310" d="M216.7,836.549a1.452,1.452,0,0,1-1.448-1.448v-2.352A1.452,1.452,0,0,1,216.7,831.3H221.2v-1.991h-5.555v-1.448H221.4a1.452,1.452,0,0,1,1.448,1.448v7.238Zm4.506-3.8H216.9V835.1H221.2Z" transform="translate(-215.249 -823.52)" fill="#17b7e7"/>
      <path id="Path_311" data-name="Path 311" d="M347.652,836.549a2.9,2.9,0,0,1-2.9-2.9v-2.9a2.892,2.892,0,0,1,2.9-2.9h2.714a1.44,1.44,0,0,1,1.448,1.448v1.448h-1.647v-1.448h-2.515a1.3,1.3,0,0,0-1.249,1.321v3.131a1.32,1.32,0,0,0,1.249,1.339h4.053v1.448Z" transform="translate(-334.805 -823.52)" fill="#17b7e7"/>
      <path id="Path_312" data-name="Path 312" d="M466.3,836.549a1.452,1.452,0,0,1-1.448-1.448v-2.352A1.452,1.452,0,0,1,466.3,831.3H470.8v-1.991h-5.555v-1.448H471a1.452,1.452,0,0,1,1.448,1.448v7.238Zm4.506-3.8h-4.307V835.1H470.8Z" transform="translate(-445.668 -823.52)" fill="#17b7e7"/>
      <path id="Path_313" data-name="Path 313" d="M597.251,784.374a2.9,2.9,0,0,1-2.9-2.9v-2.9a2.892,2.892,0,0,1,2.9-2.9h3.058v-4.343h1.647v13.029Zm3.058-7.238h-3.058A1.32,1.32,0,0,0,596,778.475v3.113a1.32,1.32,0,0,0,1.249,1.339h3.058Z" transform="translate(-565.225 -771.345)" fill="#17b7e7"/>
      <path id="Path_314" data-name="Path 314" d="M725.511,832.749v1.013a1.32,1.32,0,0,0,1.249,1.339h4.216v1.448h-4.216a2.9,2.9,0,0,1-2.9-2.9v-2.9a2.892,2.892,0,0,1,2.9-2.9h1.81a2.892,2.892,0,0,1,2.9,2.9v1.991Zm4.307-2.117a1.3,1.3,0,0,0-1.249-1.321h-1.81a1.3,1.3,0,0,0-1.249,1.321v.669h4.307Z" transform="translate(-684.781 -823.52)" fill="#17b7e7"/>
      <path id="Path_315" data-name="Path 315" d="M865.317,830.758v5.791h-1.647v-5.9a1.32,1.32,0,0,0-1.249-1.339H860.16v7.238h-1.647v-7.238H855v7.238h-1.628v-8.686h9.048A2.9,2.9,0,0,1,865.317,830.758Z" transform="translate(-804.339 -823.52)" fill="#17b7e7"/>
      <path id="Path_316" data-name="Path 316" d="M1047.542,840.168H1046.2v-1.448h1.14v-2.172h-2.7a2.892,2.892,0,0,1-2.9-2.9v-5.791h1.629v5.9a1.335,1.335,0,0,0,1.267,1.339h2.7v-7.238h1.647v10.858A1.452,1.452,0,0,1,1047.542,840.168Z" transform="translate(-978.241 -823.52)" fill="#17b7e7"/>
    </g>
  </g>
</svg>
