<svg xmlns="http://www.w3.org/2000/svg" xmlns:xlink="http://www.w3.org/1999/xlink" width="167" height="149" viewBox="0 0 167 149">
  <defs>
    <clipPath id="clip-path">
      <rect width="167" height="149" fill="none"/>
    </clipPath>
  </defs>
  <g id="Repeat_Grid_2" data-name="Repeat Grid 2" clip-path="url(#clip-path)">
    <g transform="translate(-58 -4133)">
      <rect id="Rectangle_1980" data-name="Rectangle 1980" width="4" height="4" transform="translate(58 4133)" fill="#3f5877"/>
    </g>
    <g transform="translate(-38 -4133)">
      <rect id="Rectangle_1980-2" data-name="Rectangle 1980" width="4" height="4" transform="translate(58 4133)" fill="#3f5877"/>
    </g>
    <g transform="translate(-18 -4133)">
      <rect id="Rectangle_1980-3" data-name="Rectangle 1980" width="4" height="4" transform="translate(58 4133)" fill="#3f5877"/>
    </g>
    <g transform="translate(2 -4133)">
      <rect id="Rectangle_1980-4" data-name="Rectangle 1980" width="4" height="4" transform="translate(58 4133)" fill="#3f5877"/>
    </g>
    <g transform="translate(22 -4133)">
      <rect id="Rectangle_1980-5" data-name="Rectangle 1980" width="4" height="4" transform="translate(58 4133)" fill="#3f5877"/>
    </g>
    <g transform="translate(42 -4133)">
      <rect id="Rectangle_1980-6" data-name="Rectangle 1980" width="4" height="4" transform="translate(58 4133)" fill="#3f5877"/>
    </g>
    <g transform="translate(62 -4133)">
      <rect id="Rectangle_1980-7" data-name="Rectangle 1980" width="4" height="4" transform="translate(58 4133)" fill="#3f5877"/>
    </g>
    <g transform="translate(82 -4133)">
      <rect id="Rectangle_1980-8" data-name="Rectangle 1980" width="4" height="4" transform="translate(58 4133)" fill="#3f5877"/>
    </g>
    <g transform="translate(102 -4133)">
      <rect id="Rectangle_1980-9" data-name="Rectangle 1980" width="4" height="4" transform="translate(58 4133)" fill="#3f5877"/>
    </g>
    <g transform="translate(-58 -4113)">
      <rect id="Rectangle_1980-10" data-name="Rectangle 1980" width="4" height="4" transform="translate(58 4133)" fill="#3f5877"/>
    </g>
    <g transform="translate(-38 -4113)">
      <rect id="Rectangle_1980-11" data-name="Rectangle 1980" width="4" height="4" transform="translate(58 4133)" fill="#3f5877"/>
    </g>
    <g transform="translate(-18 -4113)">
      <rect id="Rectangle_1980-12" data-name="Rectangle 1980" width="4" height="4" transform="translate(58 4133)" fill="#3f5877"/>
    </g>
    <g transform="translate(2 -4113)">
      <rect id="Rectangle_1980-13" data-name="Rectangle 1980" width="4" height="4" transform="translate(58 4133)" fill="#3f5877"/>
    </g>
    <g transform="translate(22 -4113)">
      <rect id="Rectangle_1980-14" data-name="Rectangle 1980" width="4" height="4" transform="translate(58 4133)" fill="#3f5877"/>
    </g>
    <g transform="translate(42 -4113)">
      <rect id="Rectangle_1980-15" data-name="Rectangle 1980" width="4" height="4" transform="translate(58 4133)" fill="#3f5877"/>
    </g>
    <g transform="translate(62 -4113)">
      <rect id="Rectangle_1980-16" data-name="Rectangle 1980" width="4" height="4" transform="translate(58 4133)" fill="#3f5877"/>
    </g>
    <g transform="translate(82 -4113)">
      <rect id="Rectangle_1980-17" data-name="Rectangle 1980" width="4" height="4" transform="translate(58 4133)" fill="#3f5877"/>
    </g>
    <g transform="translate(102 -4113)">
      <rect id="Rectangle_1980-18" data-name="Rectangle 1980" width="4" height="4" transform="translate(58 4133)" fill="#3f5877"/>
    </g>
    <g transform="translate(-58 -4093)">
      <rect id="Rectangle_1980-19" data-name="Rectangle 1980" width="4" height="4" transform="translate(58 4133)" fill="#3f5877"/>
    </g>
    <g transform="translate(-38 -4093)">
      <rect id="Rectangle_1980-20" data-name="Rectangle 1980" width="4" height="4" transform="translate(58 4133)" fill="#3f5877"/>
    </g>
    <g transform="translate(-18 -4093)">
      <rect id="Rectangle_1980-21" data-name="Rectangle 1980" width="4" height="4" transform="translate(58 4133)" fill="#3f5877"/>
    </g>
    <g transform="translate(2 -4093)">
      <rect id="Rectangle_1980-22" data-name="Rectangle 1980" width="4" height="4" transform="translate(58 4133)" fill="#3f5877"/>
    </g>
    <g transform="translate(22 -4093)">
      <rect id="Rectangle_1980-23" data-name="Rectangle 1980" width="4" height="4" transform="translate(58 4133)" fill="#3f5877"/>
    </g>
    <g transform="translate(42 -4093)">
      <rect id="Rectangle_1980-24" data-name="Rectangle 1980" width="4" height="4" transform="translate(58 4133)" fill="#3f5877"/>
    </g>
    <g transform="translate(62 -4093)">
      <rect id="Rectangle_1980-25" data-name="Rectangle 1980" width="4" height="4" transform="translate(58 4133)" fill="#3f5877"/>
    </g>
    <g transform="translate(82 -4093)">
      <rect id="Rectangle_1980-26" data-name="Rectangle 1980" width="4" height="4" transform="translate(58 4133)" fill="#3f5877"/>
    </g>
    <g transform="translate(102 -4093)">
      <rect id="Rectangle_1980-27" data-name="Rectangle 1980" width="4" height="4" transform="translate(58 4133)" fill="#3f5877"/>
    </g>
    <g transform="translate(-58 -4073)">
      <rect id="Rectangle_1980-28" data-name="Rectangle 1980" width="4" height="4" transform="translate(58 4133)" fill="#3f5877"/>
    </g>
    <g transform="translate(-38 -4073)">
      <rect id="Rectangle_1980-29" data-name="Rectangle 1980" width="4" height="4" transform="translate(58 4133)" fill="#3f5877"/>
    </g>
    <g transform="translate(-18 -4073)">
      <rect id="Rectangle_1980-30" data-name="Rectangle 1980" width="4" height="4" transform="translate(58 4133)" fill="#3f5877"/>
    </g>
    <g transform="translate(2 -4073)">
      <rect id="Rectangle_1980-31" data-name="Rectangle 1980" width="4" height="4" transform="translate(58 4133)" fill="#3f5877"/>
    </g>
    <g transform="translate(22 -4073)">
      <rect id="Rectangle_1980-32" data-name="Rectangle 1980" width="4" height="4" transform="translate(58 4133)" fill="#3f5877"/>
    </g>
    <g transform="translate(42 -4073)">
      <rect id="Rectangle_1980-33" data-name="Rectangle 1980" width="4" height="4" transform="translate(58 4133)" fill="#3f5877"/>
    </g>
    <g transform="translate(62 -4073)">
      <rect id="Rectangle_1980-34" data-name="Rectangle 1980" width="4" height="4" transform="translate(58 4133)" fill="#3f5877"/>
    </g>
    <g transform="translate(82 -4073)">
      <rect id="Rectangle_1980-35" data-name="Rectangle 1980" width="4" height="4" transform="translate(58 4133)" fill="#3f5877"/>
    </g>
    <g transform="translate(102 -4073)">
      <rect id="Rectangle_1980-36" data-name="Rectangle 1980" width="4" height="4" transform="translate(58 4133)" fill="#3f5877"/>
    </g>
    <g transform="translate(-58 -4053)">
      <rect id="Rectangle_1980-37" data-name="Rectangle 1980" width="4" height="4" transform="translate(58 4133)" fill="#3f5877"/>
    </g>
    <g transform="translate(-38 -4053)">
      <rect id="Rectangle_1980-38" data-name="Rectangle 1980" width="4" height="4" transform="translate(58 4133)" fill="#3f5877"/>
    </g>
    <g transform="translate(-18 -4053)">
      <rect id="Rectangle_1980-39" data-name="Rectangle 1980" width="4" height="4" transform="translate(58 4133)" fill="#3f5877"/>
    </g>
    <g transform="translate(2 -4053)">
      <rect id="Rectangle_1980-40" data-name="Rectangle 1980" width="4" height="4" transform="translate(58 4133)" fill="#3f5877"/>
    </g>
    <g transform="translate(22 -4053)">
      <rect id="Rectangle_1980-41" data-name="Rectangle 1980" width="4" height="4" transform="translate(58 4133)" fill="#3f5877"/>
    </g>
    <g transform="translate(42 -4053)">
      <rect id="Rectangle_1980-42" data-name="Rectangle 1980" width="4" height="4" transform="translate(58 4133)" fill="#3f5877"/>
    </g>
    <g transform="translate(62 -4053)">
      <rect id="Rectangle_1980-43" data-name="Rectangle 1980" width="4" height="4" transform="translate(58 4133)" fill="#3f5877"/>
    </g>
    <g transform="translate(82 -4053)">
      <rect id="Rectangle_1980-44" data-name="Rectangle 1980" width="4" height="4" transform="translate(58 4133)" fill="#3f5877"/>
    </g>
    <g transform="translate(102 -4053)">
      <rect id="Rectangle_1980-45" data-name="Rectangle 1980" width="4" height="4" transform="translate(58 4133)" fill="#3f5877"/>
    </g>
    <g transform="translate(-58 -4033)">
      <rect id="Rectangle_1980-46" data-name="Rectangle 1980" width="4" height="4" transform="translate(58 4133)" fill="#3f5877"/>
    </g>
    <g transform="translate(-38 -4033)">
      <rect id="Rectangle_1980-47" data-name="Rectangle 1980" width="4" height="4" transform="translate(58 4133)" fill="#3f5877"/>
    </g>
    <g transform="translate(-18 -4033)">
      <rect id="Rectangle_1980-48" data-name="Rectangle 1980" width="4" height="4" transform="translate(58 4133)" fill="#3f5877"/>
    </g>
    <g transform="translate(2 -4033)">
      <rect id="Rectangle_1980-49" data-name="Rectangle 1980" width="4" height="4" transform="translate(58 4133)" fill="#3f5877"/>
    </g>
    <g transform="translate(22 -4033)">
      <rect id="Rectangle_1980-50" data-name="Rectangle 1980" width="4" height="4" transform="translate(58 4133)" fill="#3f5877"/>
    </g>
    <g transform="translate(42 -4033)">
      <rect id="Rectangle_1980-51" data-name="Rectangle 1980" width="4" height="4" transform="translate(58 4133)" fill="#3f5877"/>
    </g>
    <g transform="translate(62 -4033)">
      <rect id="Rectangle_1980-52" data-name="Rectangle 1980" width="4" height="4" transform="translate(58 4133)" fill="#3f5877"/>
    </g>
    <g transform="translate(82 -4033)">
      <rect id="Rectangle_1980-53" data-name="Rectangle 1980" width="4" height="4" transform="translate(58 4133)" fill="#3f5877"/>
    </g>
    <g transform="translate(102 -4033)">
      <rect id="Rectangle_1980-54" data-name="Rectangle 1980" width="4" height="4" transform="translate(58 4133)" fill="#3f5877"/>
    </g>
    <g transform="translate(-58 -4013)">
      <rect id="Rectangle_1980-55" data-name="Rectangle 1980" width="4" height="4" transform="translate(58 4133)" fill="#3f5877"/>
    </g>
    <g transform="translate(-38 -4013)">
      <rect id="Rectangle_1980-56" data-name="Rectangle 1980" width="4" height="4" transform="translate(58 4133)" fill="#3f5877"/>
    </g>
    <g transform="translate(-18 -4013)">
      <rect id="Rectangle_1980-57" data-name="Rectangle 1980" width="4" height="4" transform="translate(58 4133)" fill="#3f5877"/>
    </g>
    <g transform="translate(2 -4013)">
      <rect id="Rectangle_1980-58" data-name="Rectangle 1980" width="4" height="4" transform="translate(58 4133)" fill="#3f5877"/>
    </g>
    <g transform="translate(22 -4013)">
      <rect id="Rectangle_1980-59" data-name="Rectangle 1980" width="4" height="4" transform="translate(58 4133)" fill="#3f5877"/>
    </g>
    <g transform="translate(42 -4013)">
      <rect id="Rectangle_1980-60" data-name="Rectangle 1980" width="4" height="4" transform="translate(58 4133)" fill="#3f5877"/>
    </g>
    <g transform="translate(62 -4013)">
      <rect id="Rectangle_1980-61" data-name="Rectangle 1980" width="4" height="4" transform="translate(58 4133)" fill="#3f5877"/>
    </g>
    <g transform="translate(82 -4013)">
      <rect id="Rectangle_1980-62" data-name="Rectangle 1980" width="4" height="4" transform="translate(58 4133)" fill="#3f5877"/>
    </g>
    <g transform="translate(102 -4013)">
      <rect id="Rectangle_1980-63" data-name="Rectangle 1980" width="4" height="4" transform="translate(58 4133)" fill="#3f5877"/>
    </g>
    <g transform="translate(-58 -3993)">
      <rect id="Rectangle_1980-64" data-name="Rectangle 1980" width="4" height="4" transform="translate(58 4133)" fill="#3f5877"/>
    </g>
    <g transform="translate(-38 -3993)">
      <rect id="Rectangle_1980-65" data-name="Rectangle 1980" width="4" height="4" transform="translate(58 4133)" fill="#3f5877"/>
    </g>
    <g transform="translate(-18 -3993)">
      <rect id="Rectangle_1980-66" data-name="Rectangle 1980" width="4" height="4" transform="translate(58 4133)" fill="#3f5877"/>
    </g>
    <g transform="translate(2 -3993)">
      <rect id="Rectangle_1980-67" data-name="Rectangle 1980" width="4" height="4" transform="translate(58 4133)" fill="#3f5877"/>
    </g>
    <g transform="translate(22 -3993)">
      <rect id="Rectangle_1980-68" data-name="Rectangle 1980" width="4" height="4" transform="translate(58 4133)" fill="#3f5877"/>
    </g>
    <g transform="translate(42 -3993)">
      <rect id="Rectangle_1980-69" data-name="Rectangle 1980" width="4" height="4" transform="translate(58 4133)" fill="#3f5877"/>
    </g>
    <g transform="translate(62 -3993)">
      <rect id="Rectangle_1980-70" data-name="Rectangle 1980" width="4" height="4" transform="translate(58 4133)" fill="#3f5877"/>
    </g>
    <g transform="translate(82 -3993)">
      <rect id="Rectangle_1980-71" data-name="Rectangle 1980" width="4" height="4" transform="translate(58 4133)" fill="#3f5877"/>
    </g>
    <g transform="translate(102 -3993)">
      <rect id="Rectangle_1980-72" data-name="Rectangle 1980" width="4" height="4" transform="translate(58 4133)" fill="#3f5877"/>
    </g>
  </g>
</svg>
